<svg xmlns="http://www.w3.org/2000/svg" width="600" height="400" viewBox="0 0 600 400" fill="none">
  <rect width="600" height="400" fill="#F3F4F6"/>
  <path d="M300 200C344.183 200 380 164.183 380 120C380 75.8172 344.183 40 300 40C255.817 40 220 75.8172 220 120C220 164.183 255.817 200 300 200Z" fill="#4F46E5" fill-opacity="0.2"/>
  <path d="M460 280C493.137 280 520 253.137 520 220C520 186.863 493.137 160 460 160C426.863 160 400 186.863 400 220C400 253.137 426.863 280 460 280Z" fill="#10B981" fill-opacity="0.2"/>
  <path d="M140 280C173.137 280 200 253.137 200 220C200 186.863 173.137 160 140 160C106.863 160 80 186.863 80 220C80 253.137 106.863 280 140 280Z" fill="#4F46E5" fill-opacity="0.2"/>
  <path d="M300 360C344.183 360 380 324.183 380 280C380 235.817 344.183 200 300 200C255.817 200 220 235.817 220 280C220 324.183 255.817 360 300 360Z" fill="#10B981" fill-opacity="0.2"/>
  <line x1="300" y1="120" x2="300" y2="280" stroke="#4F46E5" stroke-width="2" stroke-dasharray="4 4"/>
  <line x1="140" y1="220" x2="460" y2="220" stroke="#10B981" stroke-width="2" stroke-dasharray="4 4"/>
  <line x1="300" y1="120" x2="140" y2="220" stroke="#4F46E5" stroke-width="2" stroke-dasharray="4 4"/>
  <line x1="300" y1="120" x2="460" y2="220" stroke="#4F46E5" stroke-width="2" stroke-dasharray="4 4"/>
  <line x1="300" y1="280" x2="140" y2="220" stroke="#10B981" stroke-width="2" stroke-dasharray="4 4"/>
  <line x1="300" y1="280" x2="460" y2="220" stroke="#10B981" stroke-width="2" stroke-dasharray="4 4"/>
  <circle cx="300" cy="120" r="10" fill="#4F46E5"/>
  <circle cx="300" cy="280" r="10" fill="#10B981"/>
  <circle cx="140" cy="220" r="10" fill="#4F46E5"/>
  <circle cx="460" cy="220" r="10" fill="#10B981"/>
  <text x="280" y="110" font-family="Arial" font-size="12" fill="#1F2937">Skills</text>
  <text x="280" y="300" font-family="Arial" font-size="12" fill="#1F2937">Learning</text>
  <text x="120" y="220" font-family="Arial" font-size="12" fill="#1F2937">People</text>
  <text x="470" y="220" font-family="Arial" font-size="12" fill="#1F2937">Growth</text>
</svg>
