<svg xmlns="http://www.w3.org/2000/svg" width="400" height="300" viewBox="0 0 400 300" fill="none">
  <rect width="400" height="300" fill="#818CF8"/>
  <circle cx="200" cy="100" r="50" fill="#4F46E5"/>
  <path d="M200 250C255.228 250 300 205.228 300 150C300 94.7715 255.228 50 200 50C144.772 50 100 94.7715 100 150C100 205.228 144.772 250 200 250Z" fill="#4F46E5" fill-opacity="0.2"/>
  <path d="M120 150C120 150 150 120 200 120C250 120 280 150 280 150" stroke="white" stroke-width="4" stroke-linecap="round"/>
  <path d="M120 180C120 180 150 210 200 210C250 210 280 180 280 180" stroke="white" stroke-width="4" stroke-linecap="round"/>
  <circle cx="160" cy="90" r="10" fill="white"/>
  <circle cx="240" cy="90" r="10" fill="white"/>
  <path d="M175 110C175 110 185 120 200 120C215 120 225 110 225 110" stroke="white" stroke-width="4" stroke-linecap="round"/>
</svg>
